<mxfile host="app.diagrams.net" modified="2021-07-16T10:01:52.603Z" agent="5.0 (Windows NT 10.0; Win64; x64) AppleWebKit/537.36 (KHTML, like Gecko) Chrome/91.0.4472.124 Safari/537.36" etag="eggwt8ee7NMV7oNqBZ9_" version="14.4.2" type="github">
  <diagram id="9pAUKjVvFdXMPcA2sK87" name="Page-1">
    <mxGraphModel dx="2249" dy="1969" grid="1" gridSize="10" guides="1" tooltips="1" connect="1" arrows="1" fold="1" page="1" pageScale="1" pageWidth="827" pageHeight="1169" math="0" shadow="0">
      <root>
        <mxCell id="0" />
        <mxCell id="1" parent="0" />
        <mxCell id="_TUcXis1Len67JeWitkZ-1" value="" style="edgeStyle=orthogonalEdgeStyle;rounded=0;orthogonalLoop=1;jettySize=auto;html=1;" edge="1" parent="1" source="_TUcXis1Len67JeWitkZ-2" target="_TUcXis1Len67JeWitkZ-6">
          <mxGeometry relative="1" as="geometry" />
        </mxCell>
        <mxCell id="_TUcXis1Len67JeWitkZ-2" value="TransformComponent" style="rounded=0;whiteSpace=wrap;html=1;" vertex="1" parent="1">
          <mxGeometry x="-288" y="-810" width="136" height="30" as="geometry" />
        </mxCell>
        <mxCell id="_TUcXis1Len67JeWitkZ-3" style="edgeStyle=orthogonalEdgeStyle;rounded=0;orthogonalLoop=1;jettySize=auto;html=1;exitX=0.5;exitY=1;exitDx=0;exitDy=0;" edge="1" parent="1" source="_TUcXis1Len67JeWitkZ-4" target="_TUcXis1Len67JeWitkZ-50">
          <mxGeometry relative="1" as="geometry" />
        </mxCell>
        <mxCell id="_TUcXis1Len67JeWitkZ-4" value="SpriteComponent" style="rounded=0;whiteSpace=wrap;html=1;" vertex="1" parent="1">
          <mxGeometry x="60" y="-470" width="120" height="30" as="geometry" />
        </mxCell>
        <mxCell id="_TUcXis1Len67JeWitkZ-5" style="edgeStyle=orthogonalEdgeStyle;rounded=0;orthogonalLoop=1;jettySize=auto;html=1;exitX=0.5;exitY=1;exitDx=0;exitDy=0;entryX=0.5;entryY=0;entryDx=0;entryDy=0;" edge="1" parent="1" source="_TUcXis1Len67JeWitkZ-6" target="_TUcXis1Len67JeWitkZ-50">
          <mxGeometry relative="1" as="geometry">
            <Array as="points">
              <mxPoint x="-220" y="-420" />
              <mxPoint x="-105" y="-420" />
            </Array>
          </mxGeometry>
        </mxCell>
        <mxCell id="_TUcXis1Len67JeWitkZ-6" value="ColliderComponent" style="rounded=0;whiteSpace=wrap;html=1;" vertex="1" parent="1">
          <mxGeometry x="-280" y="-710" width="120" height="30" as="geometry" />
        </mxCell>
        <mxCell id="_TUcXis1Len67JeWitkZ-7" value="TileComponent" style="rounded=0;whiteSpace=wrap;html=1;" vertex="1" parent="1">
          <mxGeometry x="-440" y="-810" width="120" height="30" as="geometry" />
        </mxCell>
        <mxCell id="_TUcXis1Len67JeWitkZ-8" style="edgeStyle=orthogonalEdgeStyle;rounded=0;orthogonalLoop=1;jettySize=auto;html=1;" edge="1" parent="1" source="_TUcXis1Len67JeWitkZ-10" target="_TUcXis1Len67JeWitkZ-13">
          <mxGeometry relative="1" as="geometry" />
        </mxCell>
        <mxCell id="_TUcXis1Len67JeWitkZ-9" style="edgeStyle=orthogonalEdgeStyle;rounded=0;orthogonalLoop=1;jettySize=auto;html=1;exitX=0.5;exitY=1;exitDx=0;exitDy=0;entryX=0.25;entryY=0;entryDx=0;entryDy=0;" edge="1" parent="1" source="_TUcXis1Len67JeWitkZ-10" target="_TUcXis1Len67JeWitkZ-11">
          <mxGeometry relative="1" as="geometry" />
        </mxCell>
        <mxCell id="_TUcXis1Len67JeWitkZ-10" value="ActionsComponent" style="rounded=0;whiteSpace=wrap;html=1;" vertex="1" parent="1">
          <mxGeometry x="-60" y="-300" width="120" height="30" as="geometry" />
        </mxCell>
        <mxCell id="_TUcXis1Len67JeWitkZ-11" value="InputController" style="rounded=0;whiteSpace=wrap;html=1;" vertex="1" parent="1">
          <mxGeometry x="80" y="-230" width="120" height="30" as="geometry" />
        </mxCell>
        <mxCell id="_TUcXis1Len67JeWitkZ-12" style="edgeStyle=orthogonalEdgeStyle;rounded=0;orthogonalLoop=1;jettySize=auto;html=1;" edge="1" parent="1" source="_TUcXis1Len67JeWitkZ-13" target="_TUcXis1Len67JeWitkZ-36">
          <mxGeometry relative="1" as="geometry" />
        </mxCell>
        <mxCell id="_TUcXis1Len67JeWitkZ-13" value="IASystem" style="rounded=0;whiteSpace=wrap;html=1;" vertex="1" parent="1">
          <mxGeometry x="-60" y="-230" width="120" height="30" as="geometry" />
        </mxCell>
        <mxCell id="_TUcXis1Len67JeWitkZ-14" value="UILabel" style="rounded=0;whiteSpace=wrap;html=1;" vertex="1" parent="1">
          <mxGeometry x="414" y="-600" width="120" height="30" as="geometry" />
        </mxCell>
        <mxCell id="_TUcXis1Len67JeWitkZ-15" style="edgeStyle=orthogonalEdgeStyle;rounded=0;orthogonalLoop=1;jettySize=auto;html=1;" edge="1" parent="1" source="_TUcXis1Len67JeWitkZ-16" target="_TUcXis1Len67JeWitkZ-25">
          <mxGeometry relative="1" as="geometry">
            <Array as="points">
              <mxPoint x="180" y="-890" />
              <mxPoint x="180" y="-890" />
            </Array>
          </mxGeometry>
        </mxCell>
        <mxCell id="_TUcXis1Len67JeWitkZ-16" value="Animation" style="rounded=0;whiteSpace=wrap;html=1;" vertex="1" parent="1">
          <mxGeometry x="120" y="-940" width="120" height="30" as="geometry" />
        </mxCell>
        <mxCell id="_TUcXis1Len67JeWitkZ-17" style="edgeStyle=orthogonalEdgeStyle;rounded=0;orthogonalLoop=1;jettySize=auto;html=1;exitX=0.5;exitY=1;exitDx=0;exitDy=0;entryX=0.25;entryY=0;entryDx=0;entryDy=0;" edge="1" parent="1" source="_TUcXis1Len67JeWitkZ-18" target="_TUcXis1Len67JeWitkZ-4">
          <mxGeometry relative="1" as="geometry" />
        </mxCell>
        <mxCell id="_TUcXis1Len67JeWitkZ-18" value="TextureManager" style="rounded=0;whiteSpace=wrap;html=1;" vertex="1" parent="1">
          <mxGeometry x="-50" y="-540" width="120" height="30" as="geometry" />
        </mxCell>
        <mxCell id="_TUcXis1Len67JeWitkZ-19" style="edgeStyle=orthogonalEdgeStyle;rounded=0;orthogonalLoop=1;jettySize=auto;html=1;" edge="1" parent="1" source="_TUcXis1Len67JeWitkZ-23" target="_TUcXis1Len67JeWitkZ-26">
          <mxGeometry relative="1" as="geometry">
            <Array as="points">
              <mxPoint x="150" y="-630" />
              <mxPoint x="30" y="-630" />
            </Array>
          </mxGeometry>
        </mxCell>
        <mxCell id="_TUcXis1Len67JeWitkZ-20" style="edgeStyle=orthogonalEdgeStyle;rounded=0;orthogonalLoop=1;jettySize=auto;html=1;" edge="1" parent="1" source="_TUcXis1Len67JeWitkZ-23" target="_TUcXis1Len67JeWitkZ-37">
          <mxGeometry relative="1" as="geometry">
            <Array as="points">
              <mxPoint x="150" y="-630" />
              <mxPoint x="300" y="-630" />
            </Array>
          </mxGeometry>
        </mxCell>
        <mxCell id="_TUcXis1Len67JeWitkZ-21" style="edgeStyle=orthogonalEdgeStyle;rounded=0;orthogonalLoop=1;jettySize=auto;html=1;" edge="1" parent="1" source="_TUcXis1Len67JeWitkZ-23" target="_TUcXis1Len67JeWitkZ-14">
          <mxGeometry relative="1" as="geometry">
            <Array as="points">
              <mxPoint x="150" y="-630" />
              <mxPoint x="440" y="-630" />
            </Array>
          </mxGeometry>
        </mxCell>
        <mxCell id="_TUcXis1Len67JeWitkZ-22" style="edgeStyle=orthogonalEdgeStyle;rounded=0;orthogonalLoop=1;jettySize=auto;html=1;exitX=0.5;exitY=1;exitDx=0;exitDy=0;entryX=0.75;entryY=0;entryDx=0;entryDy=0;" edge="1" parent="1" source="_TUcXis1Len67JeWitkZ-23" target="_TUcXis1Len67JeWitkZ-4">
          <mxGeometry relative="1" as="geometry" />
        </mxCell>
        <mxCell id="_TUcXis1Len67JeWitkZ-23" value="Globalbilboulga" style="rounded=0;whiteSpace=wrap;html=1;" vertex="1" parent="1">
          <mxGeometry x="90" y="-710" width="120" height="30" as="geometry" />
        </mxCell>
        <mxCell id="_TUcXis1Len67JeWitkZ-24" style="edgeStyle=orthogonalEdgeStyle;rounded=0;orthogonalLoop=1;jettySize=auto;html=1;entryX=0.5;entryY=0;entryDx=0;entryDy=0;" edge="1" parent="1" source="_TUcXis1Len67JeWitkZ-25" target="_TUcXis1Len67JeWitkZ-23">
          <mxGeometry relative="1" as="geometry" />
        </mxCell>
        <mxCell id="_TUcXis1Len67JeWitkZ-25" value="AssetManager" style="rounded=0;whiteSpace=wrap;html=1;" vertex="1" parent="1">
          <mxGeometry x="90" y="-810" width="120" height="30" as="geometry" />
        </mxCell>
        <mxCell id="_TUcXis1Len67JeWitkZ-26" value="Game" style="rounded=0;whiteSpace=wrap;html=1;" vertex="1" parent="1">
          <mxGeometry x="-50" y="-600" width="120" height="30" as="geometry" />
        </mxCell>
        <mxCell id="_TUcXis1Len67JeWitkZ-27" style="edgeStyle=orthogonalEdgeStyle;rounded=0;orthogonalLoop=1;jettySize=auto;html=1;" edge="1" parent="1" source="_TUcXis1Len67JeWitkZ-33" target="_TUcXis1Len67JeWitkZ-2">
          <mxGeometry relative="1" as="geometry">
            <Array as="points">
              <mxPoint x="-70" y="-860" />
              <mxPoint x="-220" y="-860" />
            </Array>
          </mxGeometry>
        </mxCell>
        <mxCell id="_TUcXis1Len67JeWitkZ-28" style="edgeStyle=orthogonalEdgeStyle;rounded=0;orthogonalLoop=1;jettySize=auto;html=1;" edge="1" parent="1" source="_TUcXis1Len67JeWitkZ-33" target="_TUcXis1Len67JeWitkZ-25">
          <mxGeometry relative="1" as="geometry">
            <Array as="points">
              <mxPoint x="-70" y="-860" />
              <mxPoint x="130" y="-860" />
            </Array>
          </mxGeometry>
        </mxCell>
        <mxCell id="_TUcXis1Len67JeWitkZ-29" style="edgeStyle=orthogonalEdgeStyle;rounded=0;orthogonalLoop=1;jettySize=auto;html=1;" edge="1" parent="1" source="_TUcXis1Len67JeWitkZ-33" target="_TUcXis1Len67JeWitkZ-26">
          <mxGeometry relative="1" as="geometry">
            <Array as="points">
              <mxPoint x="-70" y="-630" />
              <mxPoint x="-30" y="-630" />
            </Array>
          </mxGeometry>
        </mxCell>
        <mxCell id="_TUcXis1Len67JeWitkZ-30" style="edgeStyle=orthogonalEdgeStyle;rounded=0;orthogonalLoop=1;jettySize=auto;html=1;" edge="1" parent="1" source="_TUcXis1Len67JeWitkZ-33" target="_TUcXis1Len67JeWitkZ-38">
          <mxGeometry relative="1" as="geometry" />
        </mxCell>
        <mxCell id="_TUcXis1Len67JeWitkZ-31" style="edgeStyle=orthogonalEdgeStyle;rounded=0;orthogonalLoop=1;jettySize=auto;html=1;exitX=0.5;exitY=1;exitDx=0;exitDy=0;entryX=0.5;entryY=0;entryDx=0;entryDy=0;" edge="1" parent="1" source="_TUcXis1Len67JeWitkZ-33" target="_TUcXis1Len67JeWitkZ-7">
          <mxGeometry relative="1" as="geometry" />
        </mxCell>
        <mxCell id="_TUcXis1Len67JeWitkZ-32" style="edgeStyle=orthogonalEdgeStyle;rounded=0;orthogonalLoop=1;jettySize=auto;html=1;exitX=0.5;exitY=1;exitDx=0;exitDy=0;entryX=0.5;entryY=0;entryDx=0;entryDy=0;" edge="1" parent="1" source="_TUcXis1Len67JeWitkZ-33" target="_TUcXis1Len67JeWitkZ-46">
          <mxGeometry relative="1" as="geometry" />
        </mxCell>
        <mxCell id="_TUcXis1Len67JeWitkZ-33" value="ECS" style="rounded=0;whiteSpace=wrap;html=1;" vertex="1" parent="1">
          <mxGeometry x="-130" y="-940" width="120" height="30" as="geometry" />
        </mxCell>
        <mxCell id="_TUcXis1Len67JeWitkZ-34" style="edgeStyle=orthogonalEdgeStyle;rounded=0;orthogonalLoop=1;jettySize=auto;html=1;" edge="1" parent="1" source="_TUcXis1Len67JeWitkZ-35" target="_TUcXis1Len67JeWitkZ-26">
          <mxGeometry relative="1" as="geometry">
            <Array as="points">
              <mxPoint y="-670" />
              <mxPoint y="-670" />
            </Array>
          </mxGeometry>
        </mxCell>
        <mxCell id="_TUcXis1Len67JeWitkZ-35" value="Area" style="rounded=0;whiteSpace=wrap;html=1;" vertex="1" parent="1">
          <mxGeometry x="-50" y="-710" width="120" height="30" as="geometry" />
        </mxCell>
        <mxCell id="_TUcXis1Len67JeWitkZ-36" value="IAs" style="rounded=0;whiteSpace=wrap;html=1;" vertex="1" parent="1">
          <mxGeometry x="-60" y="-160" width="120" height="30" as="geometry" />
        </mxCell>
        <mxCell id="_TUcXis1Len67JeWitkZ-37" value="AreaMap" style="rounded=0;whiteSpace=wrap;html=1;" vertex="1" parent="1">
          <mxGeometry x="270" y="-600" width="120" height="30" as="geometry" />
        </mxCell>
        <mxCell id="_TUcXis1Len67JeWitkZ-38" value="Collision" style="rounded=0;whiteSpace=wrap;html=1;" vertex="1" parent="1">
          <mxGeometry x="-50" y="-810" width="120" height="30" as="geometry" />
        </mxCell>
        <mxCell id="_TUcXis1Len67JeWitkZ-39" style="edgeStyle=orthogonalEdgeStyle;rounded=0;orthogonalLoop=1;jettySize=auto;html=1;exitX=0.5;exitY=1;exitDx=0;exitDy=0;entryX=0.75;entryY=0;entryDx=0;entryDy=0;" edge="1" parent="1" source="_TUcXis1Len67JeWitkZ-40" target="_TUcXis1Len67JeWitkZ-23">
          <mxGeometry relative="1" as="geometry" />
        </mxCell>
        <mxCell id="_TUcXis1Len67JeWitkZ-40" value="CharactereCreator" style="rounded=0;whiteSpace=wrap;html=1;" vertex="1" parent="1">
          <mxGeometry x="230" y="-810" width="120" height="30" as="geometry" />
        </mxCell>
        <mxCell id="_TUcXis1Len67JeWitkZ-41" value="" style="edgeStyle=orthogonalEdgeStyle;rounded=0;orthogonalLoop=1;jettySize=auto;html=1;" edge="1" parent="1" source="_TUcXis1Len67JeWitkZ-42" target="_TUcXis1Len67JeWitkZ-44">
          <mxGeometry relative="1" as="geometry" />
        </mxCell>
        <mxCell id="_TUcXis1Len67JeWitkZ-42" value="ProjectileSystem" style="rounded=0;whiteSpace=wrap;html=1;" vertex="1" parent="1">
          <mxGeometry x="-270" y="-300" width="120" height="30" as="geometry" />
        </mxCell>
        <mxCell id="_TUcXis1Len67JeWitkZ-43" value="" style="edgeStyle=orthogonalEdgeStyle;rounded=0;orthogonalLoop=1;jettySize=auto;html=1;" edge="1" parent="1" source="_TUcXis1Len67JeWitkZ-44" target="_TUcXis1Len67JeWitkZ-51">
          <mxGeometry relative="1" as="geometry" />
        </mxCell>
        <mxCell id="_TUcXis1Len67JeWitkZ-44" value="Projectiles" style="rounded=0;whiteSpace=wrap;html=1;" vertex="1" parent="1">
          <mxGeometry x="-270" y="-230" width="120" height="30" as="geometry" />
        </mxCell>
        <mxCell id="_TUcXis1Len67JeWitkZ-45" value="" style="edgeStyle=orthogonalEdgeStyle;rounded=0;orthogonalLoop=1;jettySize=auto;html=1;" edge="1" parent="1" source="_TUcXis1Len67JeWitkZ-46" target="_TUcXis1Len67JeWitkZ-47">
          <mxGeometry relative="1" as="geometry" />
        </mxCell>
        <mxCell id="_TUcXis1Len67JeWitkZ-46" value="WeaponSystem" style="rounded=0;whiteSpace=wrap;html=1;" vertex="1" parent="1">
          <mxGeometry x="-590" y="-810" width="120" height="30" as="geometry" />
        </mxCell>
        <mxCell id="_TUcXis1Len67JeWitkZ-47" value="Weapons" style="rounded=0;whiteSpace=wrap;html=1;" vertex="1" parent="1">
          <mxGeometry x="-590" y="-710" width="120" height="30" as="geometry" />
        </mxCell>
        <mxCell id="_TUcXis1Len67JeWitkZ-48" style="edgeStyle=orthogonalEdgeStyle;rounded=0;orthogonalLoop=1;jettySize=auto;html=1;exitX=0.5;exitY=1;exitDx=0;exitDy=0;entryX=0.5;entryY=0;entryDx=0;entryDy=0;" edge="1" parent="1" source="_TUcXis1Len67JeWitkZ-50" target="_TUcXis1Len67JeWitkZ-42">
          <mxGeometry relative="1" as="geometry" />
        </mxCell>
        <mxCell id="_TUcXis1Len67JeWitkZ-49" style="edgeStyle=orthogonalEdgeStyle;rounded=0;orthogonalLoop=1;jettySize=auto;html=1;exitX=0.5;exitY=1;exitDx=0;exitDy=0;entryX=0.5;entryY=0;entryDx=0;entryDy=0;" edge="1" parent="1" source="_TUcXis1Len67JeWitkZ-50" target="_TUcXis1Len67JeWitkZ-10">
          <mxGeometry relative="1" as="geometry" />
        </mxCell>
        <mxCell id="_TUcXis1Len67JeWitkZ-50" value="" style="whiteSpace=wrap;html=1;aspect=fixed;" vertex="1" parent="1">
          <mxGeometry x="-120" y="-400" width="30" height="30" as="geometry" />
        </mxCell>
        <mxCell id="_TUcXis1Len67JeWitkZ-51" value="ProjectilesCreator" style="rounded=0;whiteSpace=wrap;html=1;" vertex="1" parent="1">
          <mxGeometry x="-270" y="-160" width="120" height="30" as="geometry" />
        </mxCell>
      </root>
    </mxGraphModel>
  </diagram>
</mxfile>
